<svg width="800" height="800" viewBox="0 0 800 800" fill="none" xmlns="http://www.w3.org/2000/svg">
<path d="M800 0H0V800H800V0Z" fill="white"/>
<path d="M416.427 748.387C578.522 748.387 709.927 616.983 709.927 454.887C709.927 292.792 578.522 161.387 416.427 161.387C254.331 161.387 122.927 292.792 122.927 454.887C122.927 616.983 254.331 748.387 416.427 748.387Z" fill="#E7EEFF"/>
<path fill-rule="evenodd" clip-rule="evenodd" d="M585.712 171.387C450.708 71.9985 126.045 96.3678 90.5947 268.61C55.144 440.853 234.941 453.898 283.517 592.736C332.092 731.573 500.914 791.079 653.561 672.657C806.207 554.234 720.717 270.776 585.712 171.387Z" fill="#F4F7FF"/>
<g filter="url(#filter0_d)">
<path d="M335 99H79C72.3726 99 67 104.373 67 111V164C67 170.627 72.3726 176 79 176H335C341.627 176 347 170.627 347 164V111C347 104.373 341.627 99 335 99Z" fill="black"/>
</g>
<path d="M335 99H79C72.3726 99 67 104.373 67 111V164C67 170.627 72.3726 176 79 176H335C341.627 176 347 170.627 347 164V111C347 104.373 341.627 99 335 99Z" fill="white"/>
<g filter="url(#filter1_d)">
<path d="M338.14 182.28C365.279 182.28 387.28 160.279 387.28 133.14C387.28 106.001 365.279 84 338.14 84C311.001 84 289 106.001 289 133.14C289 160.279 311.001 182.28 338.14 182.28Z" fill="black"/>
</g>
<path d="M338.14 182.28C365.279 182.28 387.28 160.279 387.28 133.14C387.28 106.001 365.279 84 338.14 84C311.001 84 289 106.001 289 133.14C289 160.279 311.001 182.28 338.14 182.28Z" fill="white"/>
<path d="M338.56 163.8C355.261 163.8 368.8 150.261 368.8 133.56C368.8 116.859 355.261 103.32 338.56 103.32C321.859 103.32 308.32 116.859 308.32 133.56C308.32 150.261 321.859 163.8 338.56 163.8Z" fill="#13BB84"/>
<path d="M323.44 136.933L334.607 144.48L353.68 121.8" stroke="white" stroke-width="6.72"/>
<path d="M93.6007 118.794H257.72" stroke="#B1C1FF"/>
<path d="M93.6007 138.794H257.72" stroke="#B1C1FF"/>
<path d="M93.6007 158.794H257.72" stroke="#B1C1FF"/>
<g filter="url(#filter2_d)">
<path d="M335 200H79C72.3726 200 67 205.373 67 212V388C67 394.627 72.3726 400 79 400H335C341.627 400 347 394.627 347 388V212C347 205.373 341.627 200 335 200Z" fill="black"/>
</g>
<path d="M335 200H79C72.3726 200 67 205.373 67 212V388C67 394.627 72.3726 400 79 400H335C341.627 400 347 394.627 347 388V212C347 205.373 341.627 200 335 200Z" fill="white"/>
<path d="M94 299.5H321" stroke="#B1C1FF"/>
<path d="M94 319.5H321" stroke="#B1C1FF"/>
<path d="M94 339.5H321" stroke="#B1C1FF"/>
<path d="M149 231H94V281H149V231Z" fill="#E7EEFF"/>
<path d="M174 236.5H263.021" stroke="#B1C1FF"/>
<path d="M174 256.5H263.021" stroke="#B1C1FF"/>
<path d="M174 276.5H263.021" stroke="#B1C1FF"/>
<path d="M626.122 746.221L622.975 464.89H677.662L680.81 746.221" stroke="black" stroke-width="1.716"/>
<path d="M228.582 746.221L225.435 464.89H280.122L283.27 746.221" stroke="black" stroke-width="1.716"/>
<path fill-rule="evenodd" clip-rule="evenodd" d="M733 456.31H169.58V473.47H733V456.31Z" fill="#B1C1FF"/>
<path fill-rule="evenodd" clip-rule="evenodd" d="M281.12 456.31H169.58V473.47H281.12V456.31Z" fill="#849DFF"/>
<mask id="mask0" mask-type="alpha" maskUnits="userSpaceOnUse" x="177" y="313" width="199" height="110">
<path d="M335.938 313.678H184.313C180.364 313.678 177.163 316.88 177.163 320.828C177.163 321.516 177.262 322.2 177.457 322.859L205.434 417.299C206.333 420.335 209.123 422.418 212.289 422.418H368.714C372.663 422.418 375.864 419.217 375.864 415.268C375.864 414.47 375.73 413.677 375.469 412.923L342.693 318.484C341.695 315.607 338.984 313.678 335.938 313.678Z" fill="white"/>
</mask>
<g mask="url(#mask0)">
<path d="M335.938 313.678H184.313C180.364 313.678 177.163 316.88 177.163 320.828C177.163 321.516 177.262 322.2 177.457 322.859L205.434 417.299C206.333 420.335 209.123 422.418 212.289 422.418H368.714C372.663 422.418 375.864 419.217 375.864 415.268C375.864 414.47 375.73 413.677 375.469 412.923L342.693 318.484C341.695 315.607 338.984 313.678 335.938 313.678Z" fill="#849DFF"/>
<path fill-rule="evenodd" clip-rule="evenodd" d="M328.788 313.678H177.163C173.214 313.678 170.013 316.88 170.013 320.828C170.013 321.516 170.112 322.2 170.307 322.859L198.284 417.299C199.183 420.335 201.973 422.418 205.139 422.418H361.564C365.513 422.418 368.714 419.217 368.714 415.268C368.714 414.47 368.58 413.677 368.319 412.923L335.543 318.484C334.545 315.607 331.833 313.678 328.788 313.678Z" fill="#B1C1FF"/>
</g>
<path fill-rule="evenodd" clip-rule="evenodd" d="M293.225 385.93V398.977L265.076 450.354H312.58V456.31H253.992L293.225 385.93Z" fill="#849DFF"/>
<path fill-rule="evenodd" clip-rule="evenodd" d="M293.225 385.93H256.958L217.787 456.31H253.992L293.225 385.93Z" fill="#B1C1FF"/>
<path fill-rule="evenodd" clip-rule="evenodd" d="M137.964 692.26H190.874V720.145C190.874 734.756 179.03 746.6 164.419 746.6C149.809 746.6 137.964 734.756 137.964 720.145V692.26Z" fill="white" stroke="#849DFF" stroke-width="1.43"/>
<path d="M164.419 693.69C179.03 693.69 190.874 692.73 190.874 691.545C190.874 690.361 179.03 689.4 164.419 689.4C149.809 689.4 137.964 690.361 137.964 691.545C137.964 692.73 149.809 693.69 164.419 693.69Z" fill="#849DFF"/>
<path fill-rule="evenodd" clip-rule="evenodd" d="M128.256 485.162C124.408 494.756 127.904 510.753 138.744 533.154C155.003 566.755 141.054 575.452 164.65 605.556C166.39 578.963 168.775 556.747 171.803 538.905C174.831 521.064 160.315 503.15 128.256 485.162Z" fill="#B1C1FF"/>
<path fill-rule="evenodd" clip-rule="evenodd" d="M82.2721 563.697C87.3345 580.293 98.9812 591.419 117.212 597.074C144.559 605.556 157.499 626.044 157.499 633.41C161.813 610.303 153.239 594.379 131.776 585.638C110.314 576.897 93.8123 569.583 82.2721 563.697Z" fill="#B1C1FF"/>
<path fill-rule="evenodd" clip-rule="evenodd" d="M236.18 527.303C230.975 547.261 223.224 561.077 212.928 568.752C197.484 580.265 184.654 588.932 187.827 610.939C194.086 600.45 203.211 593.092 215.205 588.866C233.195 582.526 246.756 566.803 246.756 553.833C246.756 545.186 243.231 536.343 236.18 527.303Z" fill="#B1C1FF"/>
<path d="M128.256 485.779C153.795 509.029 165.849 528.873 164.419 545.31C162.274 569.965 158.629 592.283 167.602 612.831C176.574 633.379 169.086 654.654 164.419 666.822C161.308 674.935 160.593 683.414 162.274 692.26" stroke="#849DFF" stroke-width="1.716"/>
<path d="M82.2721 563.697C88.4759 573.803 102.094 583.576 123.128 593.016C154.678 607.175 159.916 618.185 157.297 640.37C154.678 662.554 152.662 672.064 160.013 691.545" stroke="#849DFF" stroke-width="1.716"/>
<path d="M168.076 691.545C165.695 681.907 168.527 673.169 176.574 665.333C188.644 653.578 182.351 627.621 187.452 612.406C192.553 597.191 193.885 591.565 217.901 577.631C233.911 568.342 240.296 552.576 237.054 530.333" stroke="#849DFF" stroke-width="1.716"/>
<path fill-rule="evenodd" clip-rule="evenodd" d="M490.346 706.362C480.851 708.286 474.984 708.832 472.744 708H461.509C458.447 712.9 454.498 717.677 449.661 722.333C442.405 729.316 436.561 733.607 438.85 746.249C456.498 747.936 468.099 746.781 473.654 742.785C474.883 736.736 475.497 733.711 475.497 733.711L480.487 735.169L490.346 729.612V706.362Z" fill="black"/>
<mask id="mask1" mask-type="alpha" maskUnits="userSpaceOnUse" x="452" y="357" width="147" height="353">
<path d="M468.628 357.383C458.098 387.104 454.588 417.85 458.098 449.619C461.608 481.389 459.685 567.75 452.33 708.701C473.14 708.517 484.769 708.283 487.216 708C489.662 707.717 492.417 706.512 495.479 704.385L512.175 531.49L531.132 444.618L521.644 706.83C534.408 708.795 543.84 709.562 549.941 709.132C556.042 708.701 563.073 706.819 571.035 703.487L565.827 691.596C572.336 602.059 576.87 548.69 579.429 531.49C583.267 505.689 600.933 449.975 598.64 405.53L592.847 360.177L468.628 357.383Z" fill="white"/>
</mask>
<g mask="url(#mask1)">
<path d="M468.628 357.383C458.098 387.104 454.588 417.85 458.098 449.619C461.608 481.389 459.685 567.75 452.33 708.701C473.14 708.517 484.769 708.283 487.216 708C489.662 707.717 492.417 706.512 495.479 704.385L512.175 531.49L531.132 444.618L521.644 706.83C534.408 708.795 543.84 709.562 549.941 709.132C556.042 708.701 563.073 706.819 571.035 703.487L565.827 691.596C572.336 602.059 576.87 548.69 579.429 531.49C583.267 505.689 600.933 449.975 598.64 405.53L592.847 360.177L468.628 357.383Z" fill="#000946"/>
<path fill-rule="evenodd" clip-rule="evenodd" d="M462.854 361.808C512.142 388.412 558.307 392.578 601.346 374.305V361.808C563.653 373.862 522.566 371.319 478.084 354.178L462.854 361.808Z" fill="#0D0A0A"/>
<path fill-rule="evenodd" clip-rule="evenodd" d="M511.599 362.718L509.436 382.094L512.787 382.718L515.171 362.718H511.599Z" fill="#000946"/>
<path fill-rule="evenodd" clip-rule="evenodd" d="M576.599 367.718L574.436 385.465L577.787 386.037L580.171 367.718H576.599Z" fill="#000946"/>
</g>
<path fill-rule="evenodd" clip-rule="evenodd" d="M523.769 707.021V727.174L549.279 729.56V723.776L559.656 732.029C583.336 735.214 596.561 736.322 599.33 735.353C603.484 733.899 604.418 725.101 596.346 722.716C588.275 720.33 573.301 713.421 569.868 703.487C562.425 706.736 555.42 708.531 548.853 708.871C542.286 709.211 533.925 708.595 523.769 707.021Z" fill="black"/>
<mask id="mask2" mask-type="alpha" maskUnits="userSpaceOnUse" x="286" y="218" width="88" height="35">
<path d="M360.969 234.02C351.775 224.26 344.787 219.38 340.007 219.38C335.226 219.38 326.347 218.92 313.371 218C312.581 220.648 313.29 222.645 315.499 223.991C298.17 222.422 288.672 222.394 287.004 223.907C284.503 226.177 287.218 227.494 289.244 228.477C287.733 229.991 288.93 231.56 292.835 233.187C292.033 235.477 294.904 237.162 301.448 238.244C301.413 240.057 303.746 241.635 308.447 242.979C315.499 244.996 335.841 248.98 342.307 248.98C346.618 248.98 351.559 250.202 357.13 252.647L374 241.797L360.969 234.02Z" fill="white"/>
</mask>
<g mask="url(#mask2)">
<path d="M360.969 234.02C351.775 224.26 344.787 219.38 340.007 219.38C335.226 219.38 326.347 218.92 313.371 218C312.581 220.648 313.29 222.645 315.499 223.991C298.17 222.422 288.672 222.394 287.004 223.907C284.503 226.177 287.218 227.494 289.244 228.477C287.733 229.991 288.93 231.56 292.835 233.187C292.033 235.477 294.904 237.162 301.448 238.244C301.413 240.057 303.746 241.635 308.447 242.979C315.499 244.996 335.841 248.98 342.307 248.98C346.618 248.98 351.559 250.202 357.13 252.647L374 241.797L360.969 234.02Z" fill="#FF927A"/>
<path d="M301.448 238.244C301.353 237.097 303.576 237.097 308.116 238.244C314.927 239.964 323.284 240.325 325.775 240.144C328.266 239.964 328.379 233.519 346.815 234.422" stroke="#7D1C1C"/>
<path d="M292.835 233.187C293.633 231.75 301.813 232.132 317.376 234.335" stroke="#7D1C1C"/>
<path d="M289.245 228.477C292.279 227.108 301.818 227.298 317.862 229.048" stroke="#7D1C1C"/>
<path d="M317.862 227.576C316.423 231.212 316.865 234.569 319.187 237.647" stroke="#7D1C1C"/>
<path d="M315.499 223.991C319.526 224.662 323.143 224.998 326.351 224.998" stroke="#7D1C1C"/>
</g>
<mask id="mask3" mask-type="alpha" maskUnits="userSpaceOnUse" x="347" y="194" width="270" height="230">
<path d="M593.034 213.578C610.466 221.525 611.86 291.933 615.506 329.672C617.937 354.832 612.383 383.968 598.844 417.08L588.202 366.272C563.591 373.314 533.074 371.756 496.652 361.598C494.71 371.869 488.958 388.46 482.371 397.912C477.979 404.214 465.417 412.872 444.685 423.887L460 306.321C448.219 333.439 436.407 345.686 424.566 343.062C412.725 340.438 386.884 311.395 347.043 255.931L369.682 231.288L420.788 285.158C438.091 247.341 447.521 225.343 449.079 219.164C451.416 209.895 479.279 206.044 485.897 203.26C490.309 201.404 496.651 198.97 504.924 195.957L510.389 194.009L543.828 194.808L550.093 195.957C567.099 202.406 581.413 208.28 593.034 213.578Z" fill="white"/>
</mask>
<g mask="url(#mask3)">
<path d="M593.034 213.578C610.466 221.525 611.86 291.933 615.506 329.672C617.937 354.832 612.383 383.968 598.844 417.08L588.202 366.272C563.591 373.314 533.074 371.756 496.652 361.598C494.71 371.869 488.958 388.46 482.371 397.912C477.979 404.214 465.417 412.872 444.685 423.887L460 306.321C448.219 333.439 436.407 345.686 424.566 343.062C412.725 340.438 386.884 311.395 347.043 255.931L369.682 231.288L420.788 285.158C438.091 247.341 447.521 225.343 449.079 219.164C451.416 209.895 479.279 206.044 485.897 203.26C490.309 201.404 496.651 198.97 504.924 195.957L510.389 194.009L543.828 194.808L550.093 195.957C567.099 202.406 581.413 208.28 593.034 213.578Z" fill="white"/>
<path fill-rule="evenodd" clip-rule="evenodd" d="M596.346 221.59L588.408 288.246L588.202 366.273L590.822 379.286V288.246L596.346 221.59Z" fill="#E7EEFF"/>
<path fill-rule="evenodd" clip-rule="evenodd" d="M508.207 191.446C506.013 196.326 504.556 202.698 503.836 210.564C502.755 222.363 510.571 296.248 508.207 314.913C506.631 327.356 502.617 343.499 496.166 363.344C550.652 372.548 579.705 375.909 583.325 373.426C586.945 370.943 588.367 368.528 587.59 366.18C567.273 319.817 557.114 286.369 557.114 265.837C557.114 235.039 547.229 211.694 544.197 203.602C542.175 198.206 543.739 193.576 548.889 189.711L510.365 188.321L508.207 191.446Z" fill="#77C5FF"/>
<path fill-rule="evenodd" clip-rule="evenodd" d="M521.662 227.94L519.586 337.64L534.517 356.178L547.287 337.64L532.1 227.94H521.662Z" fill="#004DE6"/>
<path fill-rule="evenodd" clip-rule="evenodd" d="M519.607 221.59C523.603 221.59 528.224 221.742 533.469 222.045L535.401 224.646C531.609 229.203 528.722 231.482 526.738 231.482C524.755 231.482 521.832 229.203 517.972 224.646L519.607 221.59Z" fill="#0446C9"/>
<path fill-rule="evenodd" clip-rule="evenodd" d="M510.273 191.446L507.207 194.009C504.476 199.187 503.034 204.251 502.88 209.199C502.48 222.068 502.063 230.669 501.631 235L526.059 222.363C515.731 218.718 510.518 213.286 510.42 206.067C510.322 198.848 510.273 193.974 510.273 191.446Z" fill="#41A3FF"/>
<path fill-rule="evenodd" clip-rule="evenodd" d="M543.927 191.335L546.346 193.321L551.919 209.216L553.738 233.524L526.346 222.364C537.499 218.758 543.266 213.326 543.649 206.067C544.031 198.808 544.124 193.897 543.927 191.335Z" fill="#41A3FF"/>
<path fill-rule="evenodd" clip-rule="evenodd" d="M506.634 194.845L483.95 209.97L494.346 213.223L478.784 223L506.076 299.279C507.122 302.458 507.645 306.15 507.645 310.354C507.645 314.558 507.122 320.544 506.076 328.312C507.717 320.007 508.656 314.021 508.894 310.354C509.539 300.381 508.397 292.132 508.207 288.246C507.088 265.389 504.909 244.639 504.799 231.482C504.645 213.118 505.257 200.906 506.634 194.845Z" fill="#E7EEFF"/>
<path fill-rule="evenodd" clip-rule="evenodd" d="M576.931 222.363L559.28 213.223L571.87 209.93L546.689 194.845C552.127 221.615 555.616 246.468 557.158 269.403C557.652 279.148 558.359 286.22 559.28 290.618C560.191 294.973 562.231 301.031 565.401 308.793L576.931 222.363Z" fill="#E7EEFF"/>
</g>
<mask id="mask4" mask-type="alpha" maskUnits="userSpaceOnUse" x="495" y="102" width="62" height="43">
<path d="M497.766 141.794C495.486 127.748 495.486 120.284 497.766 119.403C495.767 115.797 495.383 112.464 496.612 109.404C498.455 104.814 503.162 100.351 539.705 103.732C550.067 105.373 555.583 110.44 556.256 118.932C556.928 127.424 556.458 135.949 554.846 144.507H497.766V141.794Z" fill="white"/>
</mask>
<g mask="url(#mask4)">
<path d="M497.766 141.794C495.486 127.748 495.486 120.284 497.766 119.403C495.767 115.797 495.383 112.464 496.612 109.404C498.455 104.814 503.162 100.351 539.705 103.732C550.067 105.373 555.583 110.44 556.256 118.932C556.928 127.424 556.458 135.949 554.846 144.507H497.766V141.794Z" fill="#2C1919"/>
<path fill-rule="evenodd" clip-rule="evenodd" d="M552.44 144.512L497.766 143.514C494.806 127.407 494.806 119.37 497.766 119.403C501.237 124.646 510.46 126.394 525.433 124.646C547.894 122.025 555.326 124.595 553.376 141.794C552.076 153.259 551.764 154.165 552.44 144.512Z" fill="#160F0F"/>
</g>
<path fill-rule="evenodd" clip-rule="evenodd" d="M499.738 143.104C497.673 141.357 496.009 141.357 494.746 143.104C492.853 145.726 498.182 156.197 500.262 156.197C501.648 156.197 501.473 151.833 499.738 143.104Z" fill="#FF927A"/>
<path fill-rule="evenodd" clip-rule="evenodd" d="M552.873 143.104C554.939 141.357 556.603 141.357 557.865 143.104C559.758 145.726 554.429 156.197 552.35 156.197C550.964 156.197 551.138 151.833 552.873 143.104Z" fill="#FF927A"/>
<mask id="mask5" mask-type="alpha" maskUnits="userSpaceOnUse" x="499" y="124" width="55" height="99">
<path d="M510.724 185.802C503.4 182.159 499.738 166.501 499.738 138.83V124.646C503.503 127.396 507.882 128.771 512.874 128.771C517.97 128.771 548.821 123.782 551.426 129.947C554.032 136.113 555.934 175.358 544.017 185.436V208.731C542.233 217.035 536.727 221.551 527.499 222.28C513.658 223.373 511.886 213.496 510.724 208.731C509.95 205.554 509.95 197.911 510.724 185.802Z" fill="white"/>
</mask>
<g mask="url(#mask5)">
<path d="M510.724 185.802C503.4 182.159 499.738 166.501 499.738 138.83V124.646C503.503 127.396 507.882 128.771 512.874 128.771C517.97 128.771 548.821 123.782 551.426 129.947C554.032 136.113 555.934 175.358 544.017 185.436V208.731C542.233 217.035 536.727 221.551 527.499 222.28C513.658 223.373 511.886 213.496 510.724 208.731C509.95 205.554 509.95 197.911 510.724 185.802Z" fill="#FF927A"/>
<path d="M523.05 146.119V161.833C524.058 162.884 525.125 163.41 526.251 163.41C527.377 163.41 528.466 162.884 529.517 161.833" stroke="black"/>
<path d="M534.661 151.518C535.589 151.518 536.34 150.45 536.34 149.133C536.34 147.815 535.589 146.747 534.661 146.747C533.734 146.747 532.983 147.815 532.983 149.133C532.983 150.45 533.734 151.518 534.661 151.518Z" fill="black"/>
<path d="M514.516 151.518C515.443 151.518 516.194 150.45 516.194 149.133C516.194 147.815 515.443 146.747 514.516 146.747C513.588 146.747 512.837 147.815 512.837 149.133C512.837 150.45 513.588 151.518 514.516 151.518Z" fill="black"/>
<path d="M509.619 141.256C513.052 139.909 516.363 139.909 519.552 141.256" stroke="black"/>
<path d="M539.698 141.256C536.265 139.909 532.954 139.909 529.765 141.256" stroke="black"/>
<path fill-rule="evenodd" clip-rule="evenodd" d="M509.313 184.534C520.718 193.835 532.756 193.835 545.427 184.534L544.609 190.927C534.759 200.353 522.292 205.067 507.207 205.067L509.313 184.534Z" fill="#E1806A"/>
</g>
<mask id="mask6" mask-type="alpha" maskUnits="userSpaceOnUse" x="500" y="153" width="54" height="41">
<path d="M500.262 153.017C502.684 164.816 506.263 170.225 510.999 169.242C518.103 167.768 527.159 163.721 537.179 168.594C547.199 173.466 549.232 173.25 553.268 153.017C553.016 164.974 551.25 174.127 547.969 180.476C543.048 190 530.329 196.756 515.59 191.027C505.764 187.207 500.654 174.537 500.262 153.017Z" fill="white"/>
</mask>
<g mask="url(#mask6)">
<path d="M500.262 153.017C502.684 164.816 506.263 170.225 510.999 169.242C518.103 167.768 527.159 163.721 537.179 168.594C547.199 173.466 549.232 173.25 553.268 153.017C553.016 164.974 551.25 174.127 547.969 180.476C543.048 190 530.329 196.756 515.59 191.027C505.764 187.207 500.654 174.537 500.262 153.017Z" fill="#2C1919"/>
<path fill-rule="evenodd" clip-rule="evenodd" d="M500.262 151.518C503.554 178.305 512.904 191.114 528.313 189.944C537.627 189.237 544.887 185.288 550.093 178.095C547.631 183.478 544.723 187.525 541.369 190.236C536.338 194.302 518.054 200.826 509.619 190.993C503.996 184.438 500.877 175.851 500.262 165.234L499.738 153.017L500.262 151.518Z" fill="#160F0F"/>
</g>
<path fill-rule="evenodd" clip-rule="evenodd" d="M519.692 173.558H534.226C531.945 177.962 529.334 180.057 526.391 179.844C523.449 179.632 521.216 177.536 519.692 173.558Z" fill="#EEECEA"/>
<path d="M514.346 156C518.212 156 521.346 152.866 521.346 149C521.346 145.134 518.212 142 514.346 142C510.48 142 507.346 145.134 507.346 149C507.346 152.866 510.48 156 514.346 156Z" stroke="black"/>
<path d="M534.346 156C538.212 156 541.346 152.866 541.346 149C541.346 145.134 538.212 142 534.346 142C530.48 142 527.346 145.134 527.346 149C527.346 152.866 530.48 156 534.346 156Z" stroke="black"/>
<path d="M521.346 148.511H527.346" stroke="black"/>
<path d="M541.346 148.511L553.738 141.794" stroke="black"/>
<path d="M507.738 148.511L498.515 140.751" stroke="black"/>
<path d="M549.658 373.426H540.533C537.865 373.426 535.701 375.589 535.701 378.257C535.701 378.314 535.702 378.37 535.704 378.426C535.801 381.192 538.113 383.362 540.88 383.282L549.658 383.028" stroke="#707070" stroke-width="2"/>
<path d="M535.53 378.033H540.722" stroke="#707070" stroke-width="2"/>
<defs>
<filter id="filter0_d" x="52" y="93" width="302" height="99" filterUnits="userSpaceOnUse" color-interpolation-filters="sRGB">
<feFlood flood-opacity="0" result="BackgroundImageFix"/>
<feColorMatrix in="SourceAlpha" type="matrix" values="0 0 0 0 0 0 0 0 0 0 0 0 0 0 0 0 0 0 127 0"/>
<feOffset dx="-4" dy="5"/>
<feGaussianBlur stdDeviation="5.5"/>
<feColorMatrix type="matrix" values="0 0 0 0 0.105983 0 0 0 0 0.20932 0 0 0 0 0.317086 0 0 0 0.178458 0"/>
<feBlend mode="normal" in2="BackgroundImageFix" result="effect1_dropShadow"/>
<feBlend mode="normal" in="SourceGraphic" in2="effect1_dropShadow" result="shape"/>
</filter>
<filter id="filter1_d" x="275" y="78" width="118.28" height="118.28" filterUnits="userSpaceOnUse" color-interpolation-filters="sRGB">
<feFlood flood-opacity="0" result="BackgroundImageFix"/>
<feColorMatrix in="SourceAlpha" type="matrix" values="0 0 0 0 0 0 0 0 0 0 0 0 0 0 0 0 0 0 127 0"/>
<feOffset dx="-4" dy="4"/>
<feGaussianBlur stdDeviation="5"/>
<feColorMatrix type="matrix" values="0 0 0 0 0.305882 0 0 0 0 0.580392 0 0 0 0 0.866667 0 0 0 0.360741 0"/>
<feBlend mode="normal" in2="BackgroundImageFix" result="effect1_dropShadow"/>
<feBlend mode="normal" in="SourceGraphic" in2="effect1_dropShadow" result="shape"/>
</filter>
<filter id="filter2_d" x="52" y="194" width="302" height="222" filterUnits="userSpaceOnUse" color-interpolation-filters="sRGB">
<feFlood flood-opacity="0" result="BackgroundImageFix"/>
<feColorMatrix in="SourceAlpha" type="matrix" values="0 0 0 0 0 0 0 0 0 0 0 0 0 0 0 0 0 0 127 0"/>
<feOffset dx="-4" dy="5"/>
<feGaussianBlur stdDeviation="5.5"/>
<feColorMatrix type="matrix" values="0 0 0 0 0.105983 0 0 0 0 0.20932 0 0 0 0 0.317086 0 0 0 0.178458 0"/>
<feBlend mode="normal" in2="BackgroundImageFix" result="effect1_dropShadow"/>
<feBlend mode="normal" in="SourceGraphic" in2="effect1_dropShadow" result="shape"/>
</filter>
</defs>
</svg>
