<?xml version="1.0" encoding="utf-8"?>
<!-- Generator: Adobe Illustrator 22.0.1, SVG Export Plug-In . SVG Version: 6.00 Build 0)  -->
<svg version="1.1" id="图层_1" xmlns="http://www.w3.org/2000/svg" xmlns:xlink="http://www.w3.org/1999/xlink" x="0px" y="0px"
	 viewBox="0 0 600 600" style="enable-background:new 0 0 600 600;" xml:space="preserve">
<style type="text/css">
	.st0{fill:#666C78;}
	.st1{fill:#868C96;}
	.st2{fill:#AF9462;}
	.st3{fill:#5C626D;}
	.st4{fill:#C6AB83;}
	.st5{fill:#6B905B;}
	.st6{fill:#3E5E2A;}
	.st7{fill:#EEF7E8;}
	.st8{fill:#758F5A;}
	.st9{fill:#A6BF94;}
	.st10{fill:#698F55;}
	.st11{fill:#74955E;}
	.st12{fill:#67934D;}
	.st13{fill:#7DA06B;}
	.st14{fill:#92B477;}
</style>
<g>
	<g>
		<path class="st0" d="M390.4,547.7H250c-6.3,0-11.3-5.1-11.3-11.3V412.3h163v124.1C401.7,542.6,396.6,547.7,390.4,547.7z"/>
	</g>
	<g>
		<polygon class="st1" points="238.7,412.3 263.8,394.7 381.4,394.7 401.7,412.3 		"/>
	</g>
	<g>
		<polygon class="st2" points="264.1,397.6 249.2,409.7 393.1,409.7 380,396.6 		"/>
	</g>
	<g>
		<rect x="238.7" y="425.5" class="st3" width="163" height="5.1"/>
	</g>
	<g>
		<rect x="238.7" y="435.7" class="st3" width="163" height="5.1"/>
	</g>
	<g>
		<rect x="238.7" y="445.9" class="st3" width="163" height="5.1"/>
	</g>
	<g>
		<rect x="238.7" y="507.8" class="st3" width="163" height="5.1"/>
	</g>
	<g>
		
			<rect x="318.1" y="477.5" transform="matrix(-1.836970e-16 1 -1 -1.836970e-16 865.7826 94.3527)" class="st3" width="135.2" height="5.1"/>
	</g>
	<g>
		
			<rect x="307.9" y="477.5" transform="matrix(-1.836970e-16 1 -1 -1.836970e-16 855.5827 104.5526)" class="st3" width="135.2" height="5.1"/>
	</g>
	<g>
		
			<rect x="297.7" y="477.5" transform="matrix(-1.836970e-16 1 -1 -1.836970e-16 845.3828 114.7524)" class="st3" width="135.2" height="5.1"/>
	</g>
	<g>
		
			<rect x="188.3" y="477.5" transform="matrix(-1.836970e-16 1 -1 -1.836970e-16 735.9844 224.1509)" class="st3" width="135.2" height="5.1"/>
	</g>
</g>
<g>
	<polygon class="st4" points="372.1,397.8 368.8,396.9 366.4,399.4 367.3,402.7 370.6,403.5 373,401.1 	"/>
</g>
<g>
	<path class="st5" d="M302,405.1c0,0,28.7-82.7,73.9-92c38.5-8,19.9,38.1,12.4,58.3c-1.9,5.2-4.6,10-7.9,14.4l-14.3,19.3H302z"/>
</g>
<g>
	<path class="st6" d="M291,405.1l-32.4-32.9c-18.9-19.2-25-47.7-15.5-72.9l0,0c7.1-18.8,26.2-30.3,46.1-27.8h0
		c22.6,2.9,41.2,19.1,47.1,41.1l1.2,4.5c1.7,6.5,2.8,13.2,3.1,19.9l0,0c1,22.9-2.5,45.7-10.2,67.3c-0.2,0.5-0.3,0.8-0.3,0.8v0H291z"
		/>
</g>
<g>
	
		<rect x="283.4" y="326.8" transform="matrix(0.7355 -0.6776 0.6776 0.7355 -150.9816 280.4928)" class="st7" width="0.7" height="13.6"/>
</g>
<g>
	
		<rect x="269.8" y="337.6" transform="matrix(0.9228 -0.3853 0.3853 0.9228 -111.8911 130.6762)" class="st7" width="0.7" height="13.9"/>
</g>
<g>
	<rect x="306.6" y="313.7" class="st7" width="0.7" height="12.9"/>
</g>
<g>
	
		<rect x="298.5" y="347.6" transform="matrix(0.2324 -0.9726 0.9726 0.2324 -106.5319 560.8265)" class="st7" width="7" height="0.7"/>
</g>
<g>
	
		<rect x="287.8" y="369.8" transform="matrix(0.5302 -0.8479 0.8479 0.5302 -182.0894 420.1412)" class="st7" width="0.7" height="9.2"/>
</g>
<g>
	
		<rect x="311.3" y="374.2" transform="matrix(0.9631 -0.2691 0.2691 0.9631 -90.6055 97.8772)" class="st7" width="0.7" height="10.4"/>
</g>
<g>
	<rect x="298.7" y="394.1" class="st7" width="0.7" height="4.9"/>
</g>
<g>
	<rect x="323" y="332.5" class="st7" width="0.7" height="9"/>
</g>
<g>
	<rect x="348.2" y="377.4" class="st7" width="0.7" height="9"/>
</g>
<g>
	<rect x="362" y="326.6" class="st7" width="0.7" height="9"/>
</g>
<g>
	<rect x="275.5" y="374.9" class="st7" width="0.7" height="9"/>
</g>
<g>
	<rect x="332.7" y="337" class="st7" width="0.7" height="9"/>
</g>
<g>
	
		<rect x="281.7" y="285.3" transform="matrix(7.027592e-02 -0.9975 0.9975 7.027592e-02 -16.2854 553.7212)" class="st7" width="14.4" height="0.7"/>
</g>
<g>
	
		<rect x="314.8" y="302.1" transform="matrix(0.9797 -0.2006 0.2006 0.9797 -55.0559 69.4371)" class="st7" width="0.7" height="8.6"/>
</g>
<g>
	<rect x="305.9" y="295" transform="matrix(0.3518 -0.9361 0.9361 0.3518 -75.394 481.782)" class="st7" width="8.6" height="0.7"/>
</g>
<g>
	
		<rect x="349.5" y="336.7" transform="matrix(0.3518 -0.9361 0.9361 0.3518 -86.102 549.6779)" class="st7" width="8.6" height="0.7"/>
</g>
<g>
	
		<rect x="272.3" y="279" transform="matrix(0.3518 -0.9361 0.9361 0.3518 -82.2071 439.9955)" class="st7" width="8.6" height="0.7"/>
</g>
<g>
	<rect x="268.5" y="302.2" class="st7" width="0.7" height="11.5"/>
</g>
<g>
	<rect x="258.9" y="308.8" transform="matrix(0.927 -0.375 0.375 0.927 -98.3054 120.0194)" class="st7" width="0.7" height="7.6"/>
</g>
<g>
	
		<rect x="252.3" y="323.8" transform="matrix(0.8824 -0.4706 0.4706 0.8824 -123.9455 157.3184)" class="st7" width="0.7" height="5.5"/>
</g>
<g>
	
		<rect x="255.1" y="346.4" transform="matrix(0.2324 -0.9726 0.9726 0.2324 -137.3074 519.4886)" class="st7" width="10.7" height="0.7"/>
</g>
<g>
	<rect x="289.4" y="316.1" class="st7" width="0.7" height="10.5"/>
</g>
<g>
	
		<rect x="327" y="308.9" transform="matrix(0.9733 -0.2294 0.2294 0.9733 -63.4404 83.482)" class="st7" width="0.7" height="11.3"/>
</g>
<g>
	
		<rect x="350.4" y="350.7" transform="matrix(0.9733 -0.2294 0.2294 0.9733 -72.4019 89.9668)" class="st7" width="0.7" height="11.3"/>
</g>
<g>
	
		<rect x="323.5" y="357.9" transform="matrix(0.8801 -0.4748 0.4748 0.8801 -133.8249 197.3516)" class="st7" width="0.7" height="11.5"/>
</g>
<g>
	<rect x="372.6" y="325.3" class="st7" width="0.7" height="11.5"/>
</g>
<g>
	
		<rect x="383.5" y="352.8" transform="matrix(0.8801 -0.4747 0.4747 0.8801 -124.2178 225.216)" class="st7" width="0.7" height="11.5"/>
</g>
<g>
	
		<rect x="284.7" y="348.1" transform="matrix(0.8987 -0.4386 0.4386 0.8987 -125.972 160.8009)" class="st7" width="0.7" height="9.8"/>
</g>
<g>
	
		<rect x="267.4" y="355.6" transform="matrix(0.972 -0.2349 0.2349 0.972 -77.1576 72.9564)" class="st7" width="0.7" height="9.6"/>
</g>
<g>
	
		<rect x="281.7" y="291.7" transform="matrix(0.9785 -0.2064 0.2064 0.9785 -55.2416 64.6155)" class="st7" width="0.7" height="10.6"/>
</g>
<g>
	
		<rect x="272.3" y="288.1" transform="matrix(0.7845 -0.6202 0.6202 0.7845 -122.4709 232.0526)" class="st7" width="0.7" height="8.2"/>
</g>
<g>
	<rect x="253.6" y="288.2" class="st7" width="0.7" height="11.7"/>
</g>
<g>
	<rect x="301.7" y="280.9" class="st7" width="0.7" height="9.4"/>
</g>
<g>
	
		<rect x="307.4" y="333.3" transform="matrix(0.4157 -0.9095 0.9095 0.4157 -120.9285 478.9757)" class="st7" width="9.9" height="0.7"/>
</g>
<g>
	
		<rect x="357.4" y="353.8" transform="matrix(0.4157 -0.9095 0.9095 0.4157 -110.3395 536.4599)" class="st7" width="9.9" height="0.7"/>
</g>
<g>
	
		<rect x="297.5" y="356.9" transform="matrix(0.7313 -0.6821 0.6821 0.7313 -167.6396 300.7334)" class="st7" width="0.7" height="12.4"/>
</g>
<g>
	
		<rect x="325.8" y="371.9" transform="matrix(0.1581 -0.9874 0.9874 0.1581 -87.1539 642.2436)" class="st7" width="14.5" height="0.7"/>
</g>
<g>
	
		<rect x="318" y="394.3" transform="matrix(0.5937 -0.8047 0.8047 0.5937 -186.1863 420.5554)" class="st7" width="10.7" height="0.7"/>
</g>
<g>
	<rect x="290" y="307.2" class="st7" width="9.7" height="0.7"/>
</g>
<g>
	
		<rect x="365.3" y="379.1" transform="matrix(0.4276 -0.904 0.904 0.4276 -131.6737 550.8397)" class="st7" width="7.6" height="0.7"/>
</g>
<g>
	
		<rect x="359.9" y="367.4" transform="matrix(0.5753 -0.818 0.818 0.5753 -150.7534 452.3701)" class="st7" width="0.7" height="7.9"/>
</g>
<g>
	
		<rect x="361.4" y="390.9" transform="matrix(0.7326 -0.6806 0.6806 0.7326 -170.7335 351.2672)" class="st7" width="0.7" height="4.1"/>
</g>
<g>
	
		<rect x="379.6" y="323" transform="matrix(0.8973 -0.4415 0.4415 0.8973 -104.4736 201.149)" class="st7" width="0.7" height="4.1"/>
</g>
<g>
	
		<rect x="342.8" y="396.2" transform="matrix(0.877 -0.4805 0.4805 0.877 -147.9017 215.3402)" class="st7" width="7.6" height="0.7"/>
</g>
<g>
	
		<rect x="389.4" y="329.6" transform="matrix(0.9315 -0.3638 0.3638 0.9315 -94.2573 164.5518)" class="st7" width="0.7" height="5.8"/>
</g>
<g>
	
		<rect x="371.6" y="348.3" transform="matrix(0.3477 -0.9376 0.9376 0.3477 -83.1896 577.6987)" class="st7" width="4.1" height="0.7"/>
</g>
<g>
	
		<rect x="366.4" y="363.3" transform="matrix(0.5788 -0.8154 0.8154 0.5788 -141.5111 453.3169)" class="st7" width="3.3" height="0.7"/>
</g>
<g>
	
		<ellipse transform="matrix(0.9495 -0.3139 0.3139 0.9495 -58.7764 134.9823)" class="st8" cx="389.8" cy="250" rx="18.8" ry="35.9"/>
</g>
<g>
	
		<ellipse transform="matrix(0.5739 -0.819 0.819 0.5739 -72.7065 455.229)" class="st9" cx="401.1" cy="297.5" rx="42.3" ry="23.4"/>
</g>
<g>
	
		<rect x="411.4" y="293.8" transform="matrix(0.9247 -0.3806 0.3806 0.9247 -82.082 179.053)" class="st7" width="0.7" height="6.6"/>
</g>
<g>
	
		<rect x="415.6" y="290.9" transform="matrix(0.9994 -3.513454e-02 3.513454e-02 0.9994 -9.9731 14.9534)" class="st7" width="9.7" height="0.7"/>
</g>
<g>
	
		<rect x="401.4" y="291.1" transform="matrix(0.9625 -0.2713 0.2713 0.9625 -65.0159 120.0574)" class="st7" width="0.7" height="8.2"/>
</g>
<g>
	
		<rect x="393.4" y="299.2" transform="matrix(0.166 -0.9861 0.9861 0.166 35.8725 641.4957)" class="st7" width="7.6" height="0.7"/>
</g>
<g>
	
		<rect x="384.3" y="295.9" transform="matrix(0.166 -0.9861 0.9861 0.166 31.4645 629.7495)" class="st7" width="7.6" height="0.7"/>
</g>
<g>
	
		<rect x="391.9" y="284.1" transform="matrix(0.2755 -0.9613 0.9613 0.2755 13.8998 587.2511)" class="st7" width="9.3" height="0.7"/>
</g>
<g>
	
		<rect x="391" y="282.8" transform="matrix(0.9625 -0.2713 0.2713 0.9625 -62.8849 116.883)" class="st7" width="0.7" height="6.1"/>
</g>
<g>
	
		<rect x="405.3" y="279.3" transform="matrix(0.9625 -0.2713 0.2713 0.9625 -61.4027 120.6586)" class="st7" width="0.7" height="6.1"/>
</g>
<g>
	<polygon class="st7" points="425.9,275.7 419.3,269.4 419.7,268.9 426.3,275.2 	"/>
</g>
<g>
	
		<rect x="413.6" y="264" transform="matrix(0.9625 -0.2713 0.2713 0.9625 -57.1591 122.3498)" class="st7" width="0.7" height="7.8"/>
</g>
<g>
	
		<rect x="397.1" y="271.1" transform="matrix(4.292914e-02 -0.9991 0.9991 4.292914e-02 111.2122 658.9498)" class="st7" width="4.8" height="0.7"/>
</g>
<g>
	
		<rect x="407.3" y="267.1" transform="matrix(0.8747 -0.4846 0.4846 0.8747 -80.4261 231.5523)" class="st7" width="0.7" height="8.4"/>
</g>
<g>
	
		<rect x="382.6" y="288.7" transform="matrix(0.9625 -0.2713 0.2713 0.9625 -64.5072 114.7855)" class="st7" width="0.7" height="4.1"/>
</g>
<g>
	
		<rect x="405.1" y="309.1" transform="matrix(0.6904 -0.7234 0.7234 0.6904 -100.8107 390.1608)" class="st7" width="0.7" height="7.5"/>
</g>
<g>
	
		<rect x="409.9" y="283.8" transform="matrix(0.3045 -0.9525 0.9525 0.3045 17.3432 591.9489)" class="st7" width="8.3" height="0.7"/>
</g>
<g>
	
		<rect x="383.8" y="226.2" transform="matrix(0.5377 -0.8431 0.8431 0.5377 -15.932 429.9853)" class="st7" width="0.7" height="6.7"/>
</g>
<g>
	
		<rect x="373.9" y="235.3" transform="matrix(0.3688 -0.9295 0.9295 0.3688 15.5465 497.6842)" class="st7" width="0.7" height="4.1"/>
</g>
<g>
	
		<rect x="383.4" y="236.5" transform="matrix(0.9957 -9.266309e-02 9.266309e-02 0.9957 -20.6651 36.5959)" class="st7" width="0.7" height="8.6"/>
</g>
<g>
	
		<rect x="385.4" y="245.3" transform="matrix(0.5858 -0.8104 0.8104 0.5858 -37.8176 417.1651)" class="st7" width="7.6" height="0.7"/>
</g>
<g>
	
		<rect x="402.5" y="256.4" transform="matrix(0.9659 -0.259 0.259 0.9659 -53.6562 113.2022)" class="st7" width="0.7" height="7.8"/>
</g>
<g>
	<polygon class="st7" points="387.3,253.9 384.4,252.8 384.7,252.2 387.5,253.2 	"/>
</g>
<g>
	<rect x="394.9" y="250.1" transform="matrix(0.9028 -0.43 0.43 0.9028 -70.3008 194.4942)" class="st7" width="0.7" height="5.4"/>
</g>
<g>
	
		<rect x="379.7" y="259.4" transform="matrix(0.2599 -0.9656 0.9656 0.2599 28.7226 560.5497)" class="st7" width="0.7" height="4.2"/>
</g>
<g>
	
		<rect x="379.1" y="245.4" transform="matrix(0.6846 -0.7289 0.7289 0.6846 -61.3544 354.8959)" class="st7" width="0.7" height="5.8"/>
</g>
<g>
	
		<rect x="376.8" y="226.8" transform="matrix(0.6314 -0.7755 0.7755 0.6314 -39.8458 377.459)" class="st7" width="0.7" height="7.6"/>
</g>
<g>
	
		<rect x="390.7" y="231.4" transform="matrix(0.9623 -0.2719 0.2719 0.9623 -49.3202 115.2184)" class="st7" width="0.7" height="8.4"/>
</g>
<g>
	
		<rect x="374.5" y="216.3" transform="matrix(0.9271 -0.3748 0.3748 0.9271 -53.7485 156.9129)" class="st7" width="4.1" height="0.7"/>
</g>
<g>
	
		<rect x="405.8" y="249.2" transform="matrix(0.996 -8.918349e-02 8.918349e-02 0.996 -20.7847 37.2253)" class="st7" width="0.7" height="4.1"/>
</g>
<g>
	
		<rect x="393.7" y="262.8" transform="matrix(0.9972 -7.415923e-02 7.415923e-02 0.9972 -18.4225 30.0305)" class="st7" width="2.9" height="0.7"/>
</g>
<g>
	
		<rect x="388.1" y="265.2" transform="matrix(0.9029 -0.4299 0.4299 0.9029 -77.1188 192.9175)" class="st7" width="0.7" height="4"/>
</g>
<g>
	
		<rect x="400.3" y="241.5" transform="matrix(0.9889 -0.1485 0.1485 0.9889 -32.0426 62.2031)" class="st7" width="0.7" height="8.5"/>
</g>
<g>
	
		<rect x="392.8" y="237.4" transform="matrix(1.367060e-02 -0.9999 0.9999 1.367060e-02 151.8409 629.3029)" class="st7" width="4.2" height="0.7"/>
</g>
<g>
	
		<rect x="388.5" y="226.4" transform="matrix(0.172 -0.9851 0.9851 0.172 99.6821 572.0338)" class="st7" width="3.3" height="0.7"/>
</g>
<g>
	<rect x="379.1" y="215.7" transform="matrix(0.9507 -0.31 0.31 0.9507 -49.1106 128.4079)" class="st7" width="0.7" height="5.9"/>
</g>
<g>
	<path class="st10" d="M274.2,305.8c-8.1-13.8-20.6-30.3-38.7-42.3c-37.6-25-64.1-12.2-66.7,8.8c-2.7,21,17.4,46.2,43.2,58.6
		C293.4,369.7,282.8,320.5,274.2,305.8z"/>
</g>
<g>
	<polygon class="st7" points="195.4,298 195,297.6 202.3,291 202.7,291.5 	"/>
</g>
<g>
	
		<rect x="182.9" y="282.3" transform="matrix(0.5832 -0.8123 0.8123 0.5832 -156.9666 268.5959)" class="st7" width="0.7" height="9.8"/>
</g>
<g>
	
		<rect x="186.4" y="259.1" transform="matrix(9.516895e-02 -0.9955 0.9955 9.516895e-02 -93.1999 424.097)" class="st7" width="0.7" height="8.5"/>
</g>
<g>
	
		<rect x="199.6" y="266.2" transform="matrix(0.9118 -0.4107 0.4107 0.9118 -92.5321 105.7517)" class="st7" width="0.7" height="4.2"/>
</g>
<g>
	
		<rect x="192.6" y="271.5" transform="matrix(0.9469 -0.3216 0.3216 0.9469 -78.2222 76.6491)" class="st7" width="0.7" height="7.3"/>
</g>
<g>
	
		<rect x="221.7" y="277.4" transform="matrix(0.309 -0.9511 0.9511 0.309 -111.7234 403.779)" class="st7" width="0.7" height="2.8"/>
</g>
<g>
	
		<rect x="208.5" y="308.1" transform="matrix(0.6893 -0.7245 0.7245 0.6893 -158.178 247.9357)" class="st7" width="3.1" height="0.7"/>
</g>
<g>
	
		<rect x="199.7" y="285.9" transform="matrix(0.9971 -7.624798e-02 7.624798e-02 0.9971 -21.2327 16.3407)" class="st7" width="7.4" height="0.7"/>
</g>
<g>
	
		<rect x="193.6" y="310.4" transform="matrix(0.6115 -0.7912 0.7912 0.6115 -169.5971 276.1287)" class="st7" width="5.6" height="0.7"/>
</g>
<g>
	
		<rect x="211.9" y="263.5" transform="matrix(0.9157 -0.4018 0.4018 0.9157 -89.6097 107.8338)" class="st7" width="0.7" height="8"/>
</g>
<g>
	
		<rect x="207.4" y="270.3" transform="matrix(0.3089 -0.9511 0.9511 0.3089 -117.1897 386.957)" class="st7" width="0.7" height="7.6"/>
</g>
<g>
	
		<rect x="233.4" y="276.6" transform="matrix(0.863 -0.5053 0.5053 0.863 -109.5001 156.4733)" class="st7" width="0.7" height="7.1"/>
</g>
<g>
	
		<rect x="227" y="300.7" transform="matrix(0.8824 -0.4705 0.4705 0.8824 -114.5841 143.5436)" class="st7" width="5.8" height="0.7"/>
</g>
<g>
	
		<rect x="229" y="322" transform="matrix(1.348209e-02 -0.9999 0.9999 1.348209e-02 -99.9444 551.1799)" class="st7" width="0.7" height="8.4"/>
</g>
<g>
	
		<rect x="212.7" y="316.5" transform="matrix(0.8421 -0.5393 0.5393 0.8421 -136.5972 166.966)" class="st7" width="8.3" height="0.7"/>
</g>
<g>
	
		<rect x="203.3" y="316.4" transform="matrix(0.7822 -0.623 0.623 0.7822 -152.3873 197.5839)" class="st7" width="6.2" height="0.7"/>
</g>
<g>
	
		<rect x="198.6" y="296.3" transform="matrix(1.752984e-02 -0.9998 0.9998 1.752984e-02 -107.2765 496.4534)" class="st7" width="0.7" height="13"/>
</g>
<g>
	
		<rect x="220.8" y="305.2" transform="matrix(0.3089 -0.9511 0.9511 0.3089 -138.0512 421.7307)" class="st7" width="0.7" height="1.4"/>
</g>
<g>
	
		<rect x="223.2" y="286.8" transform="matrix(7.376926e-02 -0.9973 0.9973 7.376926e-02 -84.9426 494.0968)" class="st7" width="0.7" height="11.9"/>
</g>
<g>
	
		<rect x="243.4" y="279.5" transform="matrix(0.9336 -0.3584 0.3584 0.9336 -86.6187 106.4153)" class="st7" width="0.7" height="14.6"/>
</g>
<g>
	<polygon class="st7" points="236.2,274.4 230.2,266.5 230.8,266.1 236.7,274 	"/>
</g>
<g>
	
		<rect x="222.5" y="258.7" transform="matrix(0.9916 -0.129 0.129 0.9916 -32.1859 30.9511)" class="st7" width="0.7" height="10.3"/>
</g>
<g>
	
		<rect x="207.2" y="251.9" transform="matrix(0.7933 -0.6088 0.6088 0.7933 -113.1253 179.3087)" class="st7" width="0.7" height="8.6"/>
</g>
<g>
	
		<rect x="198.7" y="254" transform="matrix(0.5138 -0.8579 0.8579 0.5138 -124.6775 296.2171)" class="st7" width="0.7" height="8.1"/>
</g>
<g>
	
		<rect x="177.1" y="272.5" transform="matrix(1.854395e-02 -0.9998 0.9998 1.854395e-02 -101.2411 447.7009)" class="st7" width="0.7" height="5.9"/>
</g>
<g>
	
		<rect x="176.8" y="258.1" transform="matrix(0.9352 -0.354 0.354 0.9352 -82.0569 79.8042)" class="st7" width="0.7" height="12.1"/>
</g>
<g>
	
		<rect x="183.6" y="300.9" transform="matrix(0.8897 -0.4566 0.4566 0.8897 -116.9293 118.512)" class="st7" width="6.4" height="0.7"/>
</g>
<g>
	
		<rect x="238.2" y="292.8" transform="matrix(0.6209 -0.7839 0.7839 0.6209 -141.0289 298.9237)" class="st7" width="0.7" height="4.9"/>
</g>
<g>
	
		<rect x="237.5" y="304.2" transform="matrix(0.8203 -0.5719 0.5719 0.8203 -133.718 191.4811)" class="st7" width="0.7" height="8.6"/>
</g>
<g>
	
		<rect x="226.8" y="315.7" transform="matrix(0.5677 -0.8232 0.8232 0.5677 -160.942 325.6135)" class="st7" width="5.5" height="0.7"/>
</g>
<g>
	
		<rect x="246" y="295.5" transform="matrix(0.3673 -0.9301 0.9301 0.3673 -117.9185 418.3596)" class="st7" width="5.1" height="0.7"/>
</g>
<g>
	
		<rect x="252.9" y="283.4" transform="matrix(0.8089 -0.5879 0.5879 0.8089 -120.6006 203.8347)" class="st7" width="0.7" height="8.1"/>
</g>
<g>
	
		<rect x="215" y="324.2" transform="matrix(0.8389 -0.5443 0.5443 0.8389 -141.5899 170.6999)" class="st7" width="5.2" height="0.7"/>
</g>
<g>
	<rect x="182.7" y="296" transform="matrix(0.9892 -0.1466 0.1466 0.9892 -41.4644 30.14)" class="st7" width="2.1" height="0.7"/>
</g>
<g>
	<path class="st11" d="M331.9,123.7c0,0,1.3-24.5,21.5-38.3c20.2-13.8,30.2,13.3,26.3,14.2c0,0,0.8,11.8-11.8,21.8
		c-12.6,10-32.5,13.5-32.5,13.5L331.9,123.7z"/>
</g>
<g>
	<path class="st12" d="M273.8,174.5c0,0,3.9-35.1,34.5-56.6s39.8,11.9,38.4,18.1c0,0-1.3,16.8-20.5,32.2s-48.4,22.1-48.4,22.1
		L273.8,174.5z"/>
</g>
<g>
	<path class="st13" d="M282,285.1c0,0-32.9-36.1-27.4-87.4c5.5-51.4,56.1-29.4,52.5-22c0,0,17.6,15.2,16.1,49.1
		c-1.6,34-21.1,70.4-21.1,70.4L282,285.1z"/>
</g>
<g>
	
		<ellipse transform="matrix(0.7071 -0.7071 0.7071 0.7071 5.3858 233.2157)" class="st14" cx="284.2" cy="110.1" rx="23.1" ry="39.5"/>
</g>
<g>
	<rect x="264.8" y="184" class="st7" width="0.7" height="1.8"/>
</g>
<g>
	
		<rect x="269.8" y="194.6" transform="matrix(0.7033 -0.7109 0.7109 0.7033 -60.6149 250.8114)" class="st7" width="0.7" height="6.9"/>
</g>
<g>
	
		<rect x="268.6" y="210.5" transform="matrix(0.9933 -0.1155 0.1155 0.9933 -22.8889 32.4805)" class="st7" width="0.7" height="6.6"/>
</g>
<g>
	
		<rect x="269.8" y="232.2" transform="matrix(0.6545 -0.7561 0.7561 0.6545 -84.6333 285.6087)" class="st7" width="0.7" height="6.5"/>
</g>
<g>
	
		<rect x="277" y="244.8" transform="matrix(0.2368 -0.9716 0.9716 0.2368 -30.8642 459.9384)" class="st7" width="0.7" height="9.7"/>
</g>
<g>
	
		<rect x="288.1" y="261" transform="matrix(0.9872 -0.1596 0.1596 0.9872 -38.7946 49.4393)" class="st7" width="0.7" height="10.5"/>
</g>
<g>
	
		<rect x="304.8" y="234.4" transform="matrix(0.4276 -0.904 0.904 0.4276 -35.5635 413.2739)" class="st7" width="7.6" height="0.7"/>
</g>
<g>
	
		<rect x="299.8" y="205.9" transform="matrix(0.5251 -0.8511 0.8511 0.5251 -30.9038 357.0776)" class="st7" width="9.3" height="0.7"/>
</g>
<g>
	<rect x="298" y="192" class="st7" width="0.7" height="6.1"/>
</g>
<g>
	
		<rect x="288.6" y="170.2" transform="matrix(0.9961 -8.878410e-02 8.878410e-02 0.9961 -14.3868 26.3412)" class="st7" width="0.7" height="9.5"/>
</g>
<g>
	
		<rect x="282.8" y="190.2" transform="matrix(0.9992 -4.038478e-02 4.038478e-02 0.9992 -7.6717 11.5933)" class="st7" width="0.7" height="11"/>
</g>
<g>
	
		<rect x="280.7" y="213.6" transform="matrix(0.9302 -0.3671 0.3671 0.9302 -59.7661 118.2855)" class="st7" width="0.7" height="5.2"/>
</g>
<g>
	
		<rect x="300.5" y="217.4" transform="matrix(0.7206 -0.6933 0.6933 0.7206 -65.4579 273.0992)" class="st7" width="11.4" height="0.7"/>
</g>
<g>
	
		<rect x="289.7" y="223.6" transform="matrix(0.9249 -0.3803 0.3803 0.9249 -64.6096 127.3559)" class="st7" width="0.7" height="7.2"/>
</g>
<g>
	<rect x="299" y="231" transform="matrix(0.285 -0.9585 0.9585 0.285 -4.8751 456.0634)" class="st7" width="8.6" height="0.7"/>
</g>
<g>
	
		<rect x="299.6" y="246.6" transform="matrix(0.5752 -0.818 0.818 0.5752 -77.5782 351.8035)" class="st7" width="0.7" height="7.9"/>
</g>
<g>
	
		<rect x="296.8" y="260.3" transform="matrix(0.5251 -0.8511 0.8511 0.5251 -77.6918 382.0099)" class="st7" width="13.3" height="0.7"/>
</g>
<g>
	<rect x="285.6" y="235" transform="matrix(0.8973 -0.4415 0.4415 0.8973 -76.0732 150.76)" class="st7" width="0.7" height="7.7"/>
</g>
<g>
	
		<rect x="262.5" y="207.8" transform="matrix(0.858 -0.5136 0.5136 0.858 -71.7473 165.1183)" class="st7" width="0.7" height="9.1"/>
</g>
<g>
	
		<rect x="271.7" y="173.4" transform="matrix(0.8662 -0.4998 0.4998 0.8662 -52.0864 159.6372)" class="st7" width="0.7" height="7.3"/>
</g>
<g>
	<rect x="279.3" y="172.5" class="st7" width="0.7" height="7.8"/>
</g>
<g>
	
		<rect x="296.3" y="175.3" transform="matrix(0.2246 -0.9745 0.9745 0.2246 62.2296 429.5127)" class="st7" width="9.4" height="0.7"/>
</g>
<g>
	
		<rect x="308.5" y="184.7" transform="matrix(0.3127 -0.9498 0.9498 0.3127 37.9789 422.4658)" class="st7" width="4.8" height="0.7"/>
</g>
<g>
	
		<rect x="315.8" y="197.9" transform="matrix(0.9734 -0.2291 0.2291 0.9734 -37.8994 77.7901)" class="st7" width="0.7" height="8.4"/>
</g>
<g>
	<rect x="309.4" y="222.8" transform="matrix(0.1875 -0.9823 0.9823 0.1875 37.94 492.1338)" class="st7" width="14" height="0.7"/>
</g>
<g>
	
		<rect x="261.3" y="224.4" transform="matrix(0.9164 -0.4002 0.4002 0.9164 -69.109 123.7004)" class="st7" width="0.7" height="5.9"/>
</g>
<g>
	
		<rect x="261.9" y="240.7" transform="matrix(0.7694 -0.6388 0.6388 0.7694 -93.8368 223.2203)" class="st7" width="0.7" height="1.8"/>
</g>
<g>
	<rect x="275.5" y="223.1" class="st7" width="0.7" height="4.1"/>
</g>
<g>
	
		<rect x="310.3" y="244.4" transform="matrix(0.4045 -0.9145 0.9145 0.4045 -37.0044 432.6514)" class="st7" width="6.9" height="0.7"/>
</g>
<g>
	
		<rect x="273.6" y="254.1" transform="matrix(0.8607 -0.509 0.509 0.8607 -93.1083 175.3407)" class="st7" width="0.7" height="7.5"/>
</g>
<g>
	<rect x="295.3" y="203.8" class="st7" width="0.7" height="10"/>
</g>
<g>
	<rect x="265.5" y="79.4" transform="matrix(0.715 -0.6991 0.6991 0.715 17.2172 209.7017)" class="st7" width="0.7" height="8.6"/>
</g>
<g>
	
		<rect x="260.7" y="87.7" transform="matrix(0.6176 -0.7865 0.7865 0.6176 29.0385 239.6979)" class="st7" width="0.7" height="4.6"/>
</g>
<g>
	<rect x="266.2" y="96.7" transform="matrix(0.396 -0.9182 0.9182 0.396 68.4477 305.5414)" class="st7" width="0.7" height="8"/>
</g>
<g>
	<rect x="273.6" y="96" class="st7" width="0.7" height="4.8"/>
</g>
<g>
	
		<rect x="280.5" y="92.3" transform="matrix(0.9598 -0.2808 0.2808 0.9598 -15.8255 82.7313)" class="st7" width="0.7" height="8.6"/>
</g>
<g>
	
		<rect x="272.6" y="109.6" transform="matrix(0.5558 -0.8313 0.8313 0.5558 29.1918 276.0708)" class="st7" width="0.7" height="2.2"/>
</g>
<g>
	
		<rect x="284.7" y="110" transform="matrix(0.9375 -0.3479 0.3479 0.9375 -21.2916 106.1851)" class="st7" width="0.7" height="4.9"/>
</g>
<g>
	
		<rect x="273.9" y="121.2" transform="matrix(0.1641 -0.9864 0.9864 0.1641 110.9971 374.0579)" class="st7" width="4.6" height="0.7"/>
</g>
<g>
	<rect x="280.7" y="123.5" class="st7" width="0.7" height="3.9"/>
</g>
<g>
	<rect x="289.4" y="127.4" class="st7" width="0.7" height="2.5"/>
</g>
<g>
	
		<rect x="300.1" y="128.5" transform="matrix(0.9725 -0.2327 0.2327 0.9725 -22.1894 73.5242)" class="st7" width="0.7" height="4.5"/>
</g>
<g>
	
		<rect x="305.5" y="118.1" transform="matrix(0.6586 -0.7525 0.7525 0.6586 16.5604 273.4129)" class="st7" width="8.2" height="0.7"/>
</g>
<g>
	
		<rect x="299.4" y="109.7" transform="matrix(0.4378 -0.8991 0.8991 0.4378 71.9959 335.2968)" class="st7" width="9.4" height="0.7"/>
</g>
<g>
	<rect x="300.7" y="105.8" class="st7" width="0.7" height="2.4"/>
</g>
<g>
	<rect x="292.8" y="96" class="st7" width="0.7" height="6.7"/>
</g>
<g>
	
		<rect x="287.5" y="87.2" transform="matrix(0.9978 -6.592479e-02 6.592479e-02 0.9978 -5.3295 19.1697)" class="st7" width="0.7" height="6.4"/>
</g>
<g>
	
		<rect x="279.5" y="81.5" transform="matrix(0.9971 -7.549008e-02 7.549008e-02 0.9971 -5.6099 21.3686)" class="st7" width="0.7" height="6.7"/>
</g>
<g>
	
		<rect x="294.3" y="114.5" transform="matrix(0.1641 -0.9864 0.9864 0.1641 133.1847 386.8458)" class="st7" width="1.1" height="0.7"/>
</g>
<g>
	<polygon class="st7" points="264.9,115 262.5,111.5 263.1,111.1 265.4,114.7 	"/>
</g>
<g>
	
		<rect x="253.5" y="95.1" transform="matrix(0.6629 -0.7487 0.7487 0.6629 12.4507 222.9602)" class="st7" width="0.7" height="5.1"/>
</g>
<g>
	<rect x="308.2" y="128.6" class="st7" width="0.7" height="6.4"/>
</g>
<g>
	
		<rect x="293" y="137.2" transform="matrix(0.3009 -0.9536 0.9536 0.3009 75.5521 378.0627)" class="st7" width="5.3" height="0.7"/>
</g>
<g>
	<rect x="347.6" y="108.2" transform="matrix(0.931 -0.365 0.365 0.931 -15.343 135.9587)" class="st7" width="8.7" height="0.7"/>
</g>
<g>
	
		<rect x="358.8" y="93.9" transform="matrix(0.3684 -0.9297 0.9297 0.3684 136.5246 395.2879)" class="st7" width="0.7" height="6.5"/>
</g>
<g>
	
		<rect x="362.2" y="101.8" transform="matrix(0.3229 -0.9464 0.9464 0.3229 147.3194 413.3076)" class="st7" width="0.7" height="3.7"/>
</g>
<g>
	
		<rect x="347.9" y="117.9" transform="matrix(0.7607 -0.6491 0.6491 0.7607 5.2706 254.8014)" class="st7" width="0.7" height="4.6"/>
</g>
<g>
	<rect x="364.8" y="84.9" class="st7" width="0.7" height="2.3"/>
</g>
<g>
	
		<rect x="357" y="85.7" transform="matrix(0.1875 -0.9823 0.9823 0.1875 206.6939 421.9305)" class="st7" width="2.8" height="0.7"/>
</g>
<g>
	<rect x="348.3" y="92.5" transform="matrix(0.7985 -0.602 0.602 0.7985 12.6192 229.2143)" class="st7" width="0.7" height="6.5"/>
</g>
<g>
	<rect x="369.8" y="94" transform="matrix(0.8407 -0.5415 0.5415 0.8407 8.3038 216.7895)" class="st7" width="5.5" height="0.7"/>
</g>
<g>
	<rect x="371" y="102.3" class="st7" width="5.1" height="0.7"/>
</g>
<g>
	
		<rect x="342.8" y="106.6" transform="matrix(0.8001 -0.5998 0.5998 0.8001 2.1701 227.9524)" class="st7" width="0.7" height="8.2"/>
</g>
<g>
	<rect x="362.2" y="114.8" class="st7" width="0.7" height="3.6"/>
</g>
<g>
	
		<rect x="370.2" y="106" transform="matrix(0.5983 -0.8013 0.8013 0.5983 61.8524 340.5131)" class="st7" width="0.7" height="5.1"/>
</g>
<g>
	<rect x="355.8" y="111.5" class="st7" width="0.7" height="10"/>
</g>
<g>
	
		<rect x="333.3" y="138.7" transform="matrix(0.2894 -0.9572 0.9572 0.2894 102.5175 419.2445)" class="st7" width="0.7" height="3.7"/>
</g>
<g>
	
		<rect x="329.9" y="127.1" transform="matrix(0.1151 -0.9933 0.9933 0.1151 168.2563 443.8351)" class="st7" width="6.7" height="0.7"/>
</g>
<g>
	<rect x="321.7" y="126.7" class="st7" width="3.2" height="0.7"/>
</g>
<g>
	
		<rect x="321.8" y="135.3" transform="matrix(0.8145 -0.5801 0.5801 0.8145 -19.9287 212.3337)" class="st7" width="0.7" height="4.1"/>
</g>
<g>
	<rect x="305.3" y="151.2" class="st7" width="0.7" height="8.5"/>
</g>
<g>
	
		<rect x="319.4" y="148.8" transform="matrix(0.9843 -0.1767 0.1767 0.9843 -21.4449 58.8443)" class="st7" width="0.7" height="2"/>
</g>
<g>
	
		<rect x="325.7" y="153.4" transform="matrix(0.3621 -0.9321 0.9321 0.3621 63.7212 402.6184)" class="st7" width="0.7" height="2.7"/>
</g>
<g>
	<polygon class="st7" points="289.9,153.4 289.6,152.8 292.9,150.5 293.3,151.1 	"/>
</g>
<g>
	<rect x="297.5" y="155.9" class="st7" width="0.7" height="1.4"/>
</g>
<g>
	<rect x="298" y="150" class="st7" width="0.7" height="3.9"/>
</g>
<g>
	
		<rect x="309.7" y="164.6" transform="matrix(0.5511 -0.8344 0.8344 0.5511 3.222 335.9138)" class="st7" width="8.3" height="0.7"/>
</g>
<g>
	
		<rect x="325.8" y="163.3" transform="matrix(0.9994 -3.580422e-02 3.580422e-02 0.9994 -5.726 11.7843)" class="st7" width="0.7" height="4.9"/>
</g>
<g>
	
		<rect x="314.7" y="147.4" transform="matrix(0.9979 -6.447447e-02 6.447447e-02 0.9979 -8.9599 20.6207)" class="st7" width="0.7" height="3.4"/>
</g>
<g>
	
		<rect x="331.6" y="145.3" transform="matrix(0.2392 -0.971 0.971 0.2392 107.8727 435.5647)" class="st7" width="0.7" height="7.4"/>
</g>
<g>
	
		<rect x="340" y="128.7" transform="matrix(0.2895 -0.9572 0.9572 0.2895 116.0266 419.0793)" class="st7" width="0.7" height="5.4"/>
</g>
<g>
	<rect x="321.8" y="114.8" class="st7" width="0.7" height="3.6"/>
</g>
<g>
	<rect x="289.7" y="146.2" class="st7" width="1.7" height="0.7"/>
</g>
<g>
	
		<rect x="286.9" y="155" transform="matrix(0.1631 -0.9866 0.9866 0.1631 83.3054 416.6819)" class="st7" width="0.7" height="8.4"/>
</g>
<g>
	<ellipse transform="matrix(0.866 -0.5 0.5 0.866 -0.3239 142.1827)" class="st8" cx="265.2" cy="71.7" rx="7.4" ry="14.1"/>
</g>
<g>
	
		<rect x="267.2" y="70.1" transform="matrix(0.1641 -0.9864 0.9864 0.1641 155.7633 324.7636)" class="st7" width="4.6" height="0.7"/>
</g>
<g>
	<rect x="262.4" y="64" class="st7" width="3.2" height="0.7"/>
</g>
<g>
	
		<rect x="258" y="63.6" transform="matrix(0.3229 -0.9464 0.9464 0.3229 112.8145 289.0022)" class="st7" width="0.7" height="4.1"/>
</g>
<g>
	
		<rect x="263.7" y="69.7" transform="matrix(0.8145 -0.5802 0.5802 0.8145 7.3812 166.4733)" class="st7" width="0.7" height="4.1"/>
</g>
<g>
	<polygon class="st4" points="269.8,401.2 266.5,402 265.5,405.2 267.8,407.7 271.2,407 272.2,403.7 	"/>
</g>
<g>
	<polygon class="st4" points="294.9,400.6 290.8,399.9 288.1,403.2 289.7,407.1 293.8,407.7 296.4,404.5 	"/>
</g>
<g>
	<polygon class="st4" points="275,404.5 273.3,404.5 272.4,406 273.3,407.4 275,407.4 275.8,406 	"/>
</g>
<g>
	<polygon class="st4" points="357.4,403.7 355.7,403.5 354.6,404.8 355.3,406.4 357,406.6 358,405.3 	"/>
</g>
<g>
	<polygon class="st4" points="284.6,400 282.9,400 282,401.5 282.9,403 284.6,403 285.4,401.5 	"/>
</g>
</svg>
